<?xml version="1.0" encoding="UTF-8"?>
<svg width="135px" height="50px" viewBox="0 0 135 50" version="1.1" xmlns="http://www.w3.org/2000/svg" xmlns:xlink="http://www.w3.org/1999/xlink">
    <!-- Generator: Sketch 47.1 (45422) - http://www.bohemiancoding.com/sketch -->
    <title>Group 11</title>
    <desc>Created with Sketch.</desc>
    <defs></defs>
    <g id="Page-1" stroke="none" stroke-width="1" fill="none" fill-rule="evenodd">
        <g id="01-Home" transform="translate(-65.000000, -38.000000)">
            <g id="Menu" transform="translate(66.000000, 39.000000)">
                <g id="Group-11">
                    <g id="Group-2">
                        <g id="Page-1">
                            <path d="M0,0.0306429129 L0,48.5218626 L44.4232426,48.5218626 C44.4232426,48.5218626 50,48.957706 49.9399452,42.9430674 L50,0 L0,0.0306429129 Z" id="Fill-1" fill="#004E97"></path>
                            <path d="M-0.47,-0.439069132 L50.4706581,-0.470288535 L50.4699995,0.000657282264 L50.4099218,42.9383748 C50.4381806,45.7685644 49.2915755,47.549291 47.3774738,48.4255655 C46.7954183,48.6920301 46.1776061,48.8562536 45.5523781,48.9388805 C45.1305874,48.9946222 44.7598552,49.0071329 44.4678201,48.9949456 C44.426548,48.9929129 29.4472746,48.9918852 -0.47,48.9918626 L-0.47,-0.439069132 Z M0.47,0.500354958 L0.47,48.0518777 L44.4598631,48.0532914 C45.2182132,48.0854431 46.1235251,47.9658018 46.9861956,47.5708718 C48.564974,46.8481081 49.4944988,45.4045164 49.4699457,42.9424101 L49.5293419,0.470288535 L0.47,0.500354958 Z" id="Stroke-3" fill="#00478E" fill-rule="nonzero"></path>
                            <path d="M33.2786638,40.8720775 L33.2786638,21.8650275 L44.1747573,21.8343381 L44.1747573,5.65384615 L5.83750809,5.70732923 L5.82524272,21.8343381 L16.6987986,21.8343381 L16.6987986,27.0944505 L5.83750809,27.0944505 L5.83750809,32.6049948 L22.225267,32.6049948 L22.225267,16.4474455 L11.2681533,16.4474455 L11.2681533,11.0779833 L38.9014154,11.0779833 L38.9014154,16.4474455 L27.7515821,16.4474455 L27.7515821,43.3461538 L30.6834651,43.3461538 C30.6834651,43.3461538 33.0865575,42.8350106 33.2786638,40.8720775" id="Fill-5" fill="#FEFEFE"></path>
                            <polygon id="Fill-7" fill="#FEFEFE" points="5.82524272 43.3461538 22.3300971 43.3461538 22.3300971 38.1634615 5.82524272 38.1634615"></polygon>
                        </g>
                    </g>
                    <path d="M70.3063039,29.4398714 C70.4747589,30.6090091 70.8056475,31.4829553 71.2989799,32.0617363 C72.201417,33.1151178 73.7475695,33.6418006 75.9374837,33.6418006 C77.2490257,33.6418006 78.3138855,33.5028953 79.1320952,33.2250804 C80.6842871,32.6926018 81.4603714,31.7029011 81.4603714,30.2559486 C81.4603714,29.4109283 81.0753374,28.7569155 80.3052577,28.2938907 C79.5351779,27.8424415 78.3259303,27.4430886 76.6774784,27.0958199 L73.8618886,26.4881029 C71.0944146,25.8861706 69.1812765,25.2321579 68.122417,24.526045 C66.3295751,23.3453317 65.4331677,21.4990479 65.4331677,18.9871383 C65.4331677,16.6951654 66.2994943,14.7910044 68.0321737,13.2745981 C69.764853,11.7581918 72.3096876,11 75.6667539,11 C78.4703253,11 80.8617479,11.7147838 82.8410934,13.144373 C84.8204389,14.5739621 85.858226,16.648861 85.954486,19.3691318 L80.6120848,19.3691318 C80.5158248,17.8295743 79.8179505,16.7356946 78.518441,16.0874598 C77.6521013,15.6591618 76.5752092,15.4450161 75.2877321,15.4450161 C73.8558652,15.4450161 72.7127953,15.7228268 71.8584881,16.2784566 C71.0041809,16.8340864 70.5770337,17.6096413 70.5770337,18.6051447 C70.5770337,19.5196187 70.9981648,20.2025701 71.8404394,20.6540193 C72.3819017,20.9549854 73.537004,21.3080366 75.3057808,21.7131833 L79.8901386,22.7723473 C81.8995654,23.2353721 83.4156371,23.8546585 84.4383992,24.6302251 C86.0266886,25.8340896 86.8208213,27.5761944 86.8208213,29.8565916 C86.8208213,32.194867 85.891325,34.1366482 84.0323045,35.6819936 C82.1732839,37.2273389 79.5472312,38 76.1540675,38 C72.6887088,38 69.9633895,37.2389144 67.9780277,35.7167203 C65.992666,34.1945262 65,32.1022641 65,29.4398714 L70.3063039,29.4398714 Z M110.266021,11.7466238 L110.266021,16.2784566 L102.306566,16.2784566 L102.306566,37.3401929 L96.7114831,37.3401929 L96.7114831,16.2784566 L88.7159299,16.2784566 L88.7159299,11.7466238 L110.266021,11.7466238 Z M127.403217,17.0424437 C126.675251,16.4752383 125.655513,16.1916399 124.343971,16.1916399 L119.164007,16.1916399 L119.164007,23.7273312 L124.343971,23.7273312 C125.655513,23.7273312 126.675251,23.4205818 127.403217,22.807074 C128.131183,22.1935661 128.495161,21.2212285 128.495161,19.8900322 C128.495161,18.5588358 128.131183,17.6096491 127.403217,17.0424437 Z M131.617578,26.2623794 C130.029288,27.5125464 127.761197,28.1376206 124.813236,28.1376206 L119.164007,28.1376206 L119.164007,37.3401929 L113.64112,37.3401929 L113.64112,11.7466238 L125.228355,11.7466238 C127.899569,11.7466238 130.029288,12.4064243 131.617578,13.726045 C133.205867,15.0456658 134,17.0887321 134,19.8553055 C134,22.8765424 133.205867,25.0122124 131.617578,26.2623794 Z" id="STP" fill="#004E97"></path>
                </g>
            </g>
        </g>
    </g>
</svg>